<?xml version="1.0" encoding="UTF-8" standalone="no"?>
<!-- Created with Inkscape (http://www.inkscape.org/) -->

<svg
   xmlns:dc="http://purl.org/dc/elements/1.1/"
   xmlns:cc="http://creativecommons.org/ns#"
   xmlns:rdf="http://www.w3.org/1999/02/22-rdf-syntax-ns#"
   xmlns:svg="http://www.w3.org/2000/svg"
   xmlns="http://www.w3.org/2000/svg"
   xmlns:sodipodi="http://sodipodi.sourceforge.net/DTD/sodipodi-0.dtd"
   xmlns:inkscape="http://www.inkscape.org/namespaces/inkscape"
   width="713.10345"
   height="520.95654"
   id="svg4666"
   version="1.1"
   inkscape:version="0.48.3.1 r9886"
   sodipodi:docname="New document 13">
  <defs
     id="defs4668" />
  <sodipodi:namedview
     id="base"
     pagecolor="#ffffff"
     bordercolor="#666666"
     borderopacity="1.0"
     inkscape:pageopacity="0.0"
     inkscape:pageshadow="2"
     inkscape:zoom="0.35"
     inkscape:cx="354.40887"
     inkscape:cy="9.0497074"
     inkscape:document-units="px"
     inkscape:current-layer="layer1"
     showgrid="false"
     fit-margin-top="0"
     fit-margin-left="0"
     fit-margin-right="0"
     fit-margin-bottom="0"
     inkscape:window-width="1920"
     inkscape:window-height="1024"
     inkscape:window-x="0"
     inkscape:window-y="27"
     inkscape:window-maximized="1" />
  <metadata
     id="metadata4671">
    <rdf:RDF>
      <cc:Work
         rdf:about="">
        <dc:format>image/svg+xml</dc:format>
        <dc:type
           rdf:resource="http://purl.org/dc/dcmitype/StillImage" />
        <dc:title></dc:title>
      </cc:Work>
    </rdf:RDF>
  </metadata>
  <g
     inkscape:label="Layer 1"
     inkscape:groupmode="layer"
     id="layer1"
     transform="translate(-20.59113,-20.45533)">
    <g
       transform="translate(504.89266,-115.06671)"
       id="g4651">
      <path
         inkscape:connector-curvature="0"
         id="path4649"
         d="m -430.7966,655.18719 c -0.5889,-0.7126 -1.34554,-2.8706 -1.68141,-4.7956 l -0.61068,-3.5 0.99068,-1.5 0.99068,-1.5 2.01695,1.25 2.01694,1.25 4.76357,-0.01 c 2.61996,0 6.33857,-0.4247 8.26357,-0.9369 l 3.5,-0.9312 12.28994,-0.5289 c 6.75946,-0.2908 12.74167,-0.808 13.2938,-1.1492 l 1.00387,-0.6205 1.45619,1.2086 1.4562,1.2085 0,-1.0457 c 0,-0.5752 1.1021,-2.3555 2.44911,-3.9563 l 2.44912,-2.9106 2.07478,-5.2638 c 3.37953,-8.57393 13.40534,-28.06304 18.13244,-35.24754 4.4071,-6.69815 10.10326,-15.74726 10.6876,-16.97869 l 0.31212,-0.65776 -7.80258,0.52998 -7.80259,0.52998 -2.82183,1.44061 -2.82184,1.4406 -1.38436,-1.14891 -1.38436,-1.14892 -1.04381,0.64511 -1.0438,0.6451 0,4.94099 0,4.94098 -0.8,0 c -0.44,0 -1.34,-0.54 -2,-1.2 l -1.2,-1.2 -0.0741,-11.55 c -0.0408,-6.3525 -0.39374,-13.575 -0.78437,-16.05 l -0.71024,-4.5 -1.37357,2.47936 c -0.75546,1.36365 -2.01695,3.12275 -2.8033,3.9091 l -1.42973,1.42973 0.63676,7.09091 c 0.35021,3.89999 0.63286,11.02523 0.6281,15.83386 l -0.009,8.74297 -1.12859,4.19127 -1.1286,4.19127 0.52258,2.61286 0.52257,2.61286 -0.82262,1.33102 -0.82261,1.33102 -1.07402,-0.66378 -1.07401,-0.66377 0.49303,-20.96434 0.49303,-20.96434 -0.86184,0 c -0.47401,0 -1.50038,1.23351 -2.28082,2.74113 -0.78044,1.50762 -4.11898,6.79512 -7.41898,11.75 l -6,9.00887 0,9.69916 0,9.69915 -1.09238,1.09323 -1.09238,1.09322 -1.05001,-1.29238 c -0.57718,-0.71039 -1.25347,-2.19196 -1.50253,-3.29196 l -0.45285,-2 -0.51765,1.5 c -0.2847,0.825 -1.44002,4.2 -2.56736,7.5 -1.12735,3.3 -2.87473,8.1423 -3.88307,10.76068 l -1.83335,4.76067 -1.77467,0.56326 -1.77466,0.56325 -2.49622,4.92609 -2.49624,4.926 -1.48315,0 -1.48315,0 0,-1.5667 0,-1.5667 2.41878,-3.1833 c 2.77153,-3.64748 11.58122,-21.39201 11.58122,-23.32693 0,-0.70886 1.8,-4.07379 4,-7.47761 2.2,-3.40383 4,-6.60201 4,-7.10707 l 0,-0.91829 -1.71043,0.3294 -1.71043,0.3294 -6.27792,7.49004 c -3.45286,4.11953 -6.72671,7.63964 -7.27522,7.82248 l -0.9973,0.33243 -1.1535,-2.53165 -1.1535,-2.53165 -8.61085,0.34717 -8.61085,0.34718 -4.35095,1.17165 -4.35094,1.17165 -0.51744,-0.51744 c -0.77263,-0.77264 -1.67621,-39.71415 -1.36325,-58.75193 l 0.27352,-16.63793 -5.34547,-1.75577 c -2.94001,-0.96568 -7.46806,-2.85548 -10.06234,-4.19956 l -4.71688,-2.44379 -3.06642,-3.13641 -3.06643,-3.13641 -2.59431,-5.48393 -2.59432,-5.48394 0.57558,-6.86552 0.57559,-6.86553 2.4509,-4.17665 2.4509,-4.17664 4.18264,-3.75 c 2.30045,-2.0625 4.70775,-3.75 5.34956,-3.75 0.64181,0 4.81569,-1.8501 9.27529,-4.11132 l 8.10837,-4.11132 0.70738,-22.20889 0.70737,-22.20888 -0.58458,-2.42979 -0.58459,-2.4298 2.31959,-4.5 c 4.90458,-9.51487 9.84822,-17.86051 11.28746,-19.05497 1.82375,-1.51358 15.6154,-24.57767 20.8961,-34.94503 2.1011,-4.125 5.02952,-9.3 6.50759,-11.5 1.47808,-2.2 5.10446,-8.275 8.05863,-13.5 5.30532,-9.38345 10.74935,-18.02835 11.96503,-19 0.34406,-0.275 2.65925,-3.875 5.14485,-8 2.48561,-4.125 7.1838,-11.89977 10.44043,-17.27726 3.25663,-5.37749 7.72538,-12.80249 9.93057,-16.5 5.94407,-9.96662 9.28124,-14.97534 10.4652,-15.70706 0.58062,-0.35884 1.68559,-2.08417 2.45549,-3.83406 0.7699,-1.74989 2.50987,-4.51838 3.8666,-6.1522 l 2.46678,-2.97058 1.60552,1.33245 1.60551,1.33246 1.39519,-0.53538 1.39518,-0.53538 4.18336,1.06184 4.18335,1.06185 4.1842,-1.24248 c 2.3013,-0.68336 5.195,-1.6352 6.43044,-2.11519 l 2.24625,-0.87272 1.38292,3.30979 1.38292,3.30979 0.70109,12.91706 0.70109,12.91707 -1.09096,20 c -0.60003,11 -1.34228,25.54004 -1.64946,32.31119 -0.30718,6.77116 -0.70927,13.09405 -0.89354,14.05087 -0.18426,0.95683 -0.66056,8.74196 -1.05843,17.30031 l -0.72341,15.56062 0.73599,15.70392 0.73599,15.70391 1.64165,-0.74278 c 0.90291,-0.40853 3.89165,-0.90967 6.64165,-1.11365 2.75,-0.20397 5.9,-0.77125 7,-1.26061 1.1,-0.48937 3.575,-1.12131 5.5,-1.40432 6.96191,-1.0235 10.52254,-1.87866 11.68975,-2.80754 l 1.18975,-0.9468 8.31025,-0.17756 c 4.57064,-0.0977 12.30429,0.12003 17.18589,0.48375 l 8.87564,0.66131 3.84926,-1.35809 3.84926,-1.3581 1.69364,2.86711 1.69365,2.86712 3.30872,0.62072 c 1.8198,0.34139 8.83146,0.79773 15.58146,1.01407 l 12.27273,0.39335 4.5,0.94108 4.5,0.94108 35,-0.33131 c 40.95806,-0.38771 62.02685,-1.06102 91.500003,-2.92414 4.125,-0.26076 20.325,-0.72446 36,-1.03045 15.675,-0.30599 29.9197501,-0.77318 31.6550001,-1.0382 l 3.15501,-0.48184 0.57575001,-5.72251 c 0.31667,-3.14738 0.83183,-10.44751 1.14481,-16.22251 0.31298,-5.775 1.23590999,-15.9 2.05094999,-22.5 l 1.48191,-12 0.27864,-17.5 0.27865,-17.5 -0.70763,-8.91608 -0.70763,-8.91608 1.34667,-8.08392 c 0.74066,-4.44616 1.86744,-10.78392 2.50395,-14.08392 l 1.15728,-6 -0.51656,-5.80188 -0.51655,-5.80188 5.6598699,-5.69812 c 5.18427,-5.21929 11.99413,-13.21135 16.42728,-19.27906 0.97207,-1.33048 3.81324,-5.11906 6.31371,-8.41906 2.50047,-3.3 7.211,-9.6 10.46784,-14 3.25684,-4.4 6.78414,-8.9 7.83843,-10 2.18626,-2.28104 16.15754,-20.12299 23.61262,-30.15438 2.75,-3.70034 6.41798,-8.28744 8.15106,-10.19356 1.73308,-1.90612 4.16887,-5.50365 5.41287,-7.99452 l 2.26182,-4.52885 4.54385,-4.81434 4.543857,-4.81435 1.84293,0 c 1.01361,0 3.08971,-0.64474 4.61356,-1.43275 l 2.77063,-1.43275 21.1505,0.35568 21.1505,0.35568 1.26442,0.78145 1.26441,0.78146 21.5148,0.24287 c 11.83313,0.13358 21.96479,0.29806 22.51479,0.36551 0.55,0.0675 4.9678,-0.13811 9.81732,-0.45681 l 8.81733,-0.57944 2.11452,1.48107 2.11453,1.48108 1.30632,-1.08415 1.30631,-1.08415 0.6889,1.86263 c 0.37889,1.02444 1.02506,2.09307 1.43594,2.37473 l 0.74705,0.51212 -1.30282,12.98788 c -0.71656,7.14334 -2.66773,21.98789 -4.33595,32.98789 -1.66822,11 -3.62293,26.075 -4.3438,33.5 l -1.31069,13.5 -0.18154,37.5 -0.18154,37.5 -1.62841,23.5 c -0.89562,12.925 -2.04257,29.8 -2.54878,37.5 l -0.92037,14 -0.0462,23.5 -0.0462,23.5 -0.98083,6.5 c -0.53945,3.575 -0.98987,7.08906 -1.00093,7.80902 l -0.0201,1.30901 -0.91332,-0.56446 -0.91333,-0.56447 0.48118,-6.24455 c 0.26465,-3.4345 0.652,-17.94455 0.8608,-32.24455 l 0.37962,-26 1.57251,-25.5 c 0.86487,-14.025 1.98531,-31.38028 2.48986,-38.56729 l 0.91735,-13.06729 0.0246,-30.93271 0.0246,-30.93271 1.06004,-10.5 c 0.58302,-5.775 1.46901,-15.675 1.96887,-22 0.91197,-11.53984 4.40076,-37.01832 6.09341,-44.5 0.49773,-2.2 0.91596,-6.5875 0.9294,-9.75 l 0.0244,-5.75 -0.83948,0 c -0.97177,0 -3.16052,4.45824 -3.16052,6.43761 0,1.77666 -18.11506,28.81402 -22.48683,33.56239 -1.26595,1.375 -3.70086,5.30276 -5.41091,8.72835 l -3.10919,6.22835 -6.15269,7.27165 c -3.38398,3.99941 -6.64492,7.72189 -7.24653,8.27218 -1.94279,1.77705 -14.10142,15.82421 -19.04182,21.99947 -2.6401,3.3 -6.31935,7.6679 -8.17611,9.70644 l -3.37592,3.70643 0,1.98455 0,1.98455 -0.9345,0.57755 -0.9345,0.57755 -0.0709,14.58573 c -0.039,8.02215 -0.28263,14.92828 -0.54139,15.34696 -0.25875,0.41867 -1.15072,11.73425 -1.98215,25.14573 -3.40667,54.95203 -5.69872,82.09427 -8.10252,95.9492 -2.29813,13.24585 -3.41701,27.1221 -4.51021,55.93531 -0.55299,14.575 -1.27301,32.35 -1.60004,39.5 -0.60876,13.30926 -0.61679,14.03844 -0.2588,23.5 l 0.2081,5.5 -1.63325,15.5 c -0.89829,8.525 -1.63051,16.4 -1.62715,17.5 l 0.006,2 3.14355,-5.5 c 1.72895,-3.025 3.88737,-6.175 4.79649,-7 0.90911,-0.825 2.32645,-2.4858 3.14965,-3.69066 0.82319,-1.20486 3.72305,-4.76409 6.44412,-7.90941 2.72108,-3.14532 5.84742,-6.93831 6.94742,-8.42887 2.8583,-3.87315 13.89502,-17.68691 18.27861,-22.87784 3.50473,-4.15021 11.51883,-14.76789 13.72139,-18.17912 0.55,-0.85181 3.25,-5.07201 6,-9.37821 2.75,-4.3062 6.80506,-10.1259 9.01125,-12.93267 3.75729,-4.78013 6.64407,-8.77833 8.98875,-12.44949 0.55,-0.86116 2.78009,-3.27304 4.95576,-5.35974 l 3.95584,-3.79399 1.29424,0 1.29424,0 0,0.83596 c 0,0.45977 -1.89881,2.54055 -4.21958,4.62395 -2.32078,2.0834 -4.68328,4.5839 -5.25,5.55668 -0.56673,0.97277 -3.61792,4.94297 -6.78042,8.82266 -3.1625,3.87969 -5.75,7.31342 -5.75,7.6305 0,0.61564 -6.92572,11.16783 -13.80279,21.03025 -2.30109,3.3 -7.09019,9.6 -10.64245,14 -3.55226,4.4 -7.94277,9.88152 -9.7567,12.18116 -1.81393,2.29964 -5.85442,7.24964 -8.97886,11 -3.12444,3.75036 -8.52444,10.32907 -12,14.61935 l -6.3192,7.80051 -5.55262,10.6337 -5.55262,10.63369 -1.07006,0.35669 -1.07005,0.35668 -0.49405,-1.88923 -0.49404,-1.88924 -3.25828,-0.65165 -3.25828,-0.65166 -13.541667,0 c -7.44791,0 -13.35416,-0.1752 -13.125,-0.38933 0.43397,-0.4055 18.184517,-1.9338 23.416667,-2.01614 1.65,-0.026 5.06976,0.29705 7.59947,0.71782 l 4.59947,0.76505 0.63572,-8.7887 c 0.34965,-4.83379 1.10701,-13.2887 1.68303,-18.7887 l 1.04731,-10 0.47386,-20.5 c 0.67631,-29.25757 2.2731,-72.79779 2.84224,-77.5 0.26629,-2.2 0.77639,-7.825 1.13356,-12.5 0.35717,-4.675 1.08417,-10.75 1.61556,-13.5 2.57211,-13.31114 6.26734,-55.25301 7.88527,-89.5 l 1.06297,-22.5 1.44197,-11.69683 1.44197,-11.69682 -0.47564,-9.74762 -0.47564,-9.74761 -0.86855,-0.86855 -0.86855,-0.86855 -10.88701,-0.49033 c -5.98786,-0.26968 -13.36201,-0.60899 -16.38701,-0.75402 -3.025,-0.14503 -9.775,0.10518 -14.999997,0.55603 l -9.5,0.81973 -2.93186,1.19393 -2.93187,1.19394 -3.06813,-0.0893 c -7.27339,-0.21181 -31.40717,-1.45614 -35.06814,-1.80811 -4.02963,-0.38741 -21.79216,-0.7484 -28.75,-0.5843 l -3.75,0.0884 0,4.32511 0,4.32511 -2.0860599,11.42489 -2.08606,11.42489 0.32723,10.5 c 0.17997,5.775 0.22092,18.6 0.091,28.5 l -0.23624,18 -1.47811,10.5 c -1.12883,8.0187 -3.53176,39.21717 -3.53176,45.85436 0,0.51241 0.70015,1.20034 1.5559,1.52872 l 1.55589,0.59705 3.24336,-1.35516 3.2433599,-1.35516 1.81053,-16.88491 1.81052,-16.8849 0.27449,-19 0.27449,-19 1.24624,-3 1.24624,-3 0.84399,-18.5 0.84399,-18.5 1.35116,-5.5 1.35116,-5.5 3.42434,-0.12143 c 1.88339,-0.0668 6.23684,-0.55481 9.67434,-1.0845 l 6.25,-0.96305 0,0.7671 c 0,0.84133 -3.28541,2.09151 -4.64644,1.76808 -0.833,-0.19795 -7.23736,0.87059 -10.47504,1.74771 l -1.62147,0.43928 -1.56199,5.22341 -1.56198,5.2234 -0.55621,15 -0.55622,15 -1.50652,9 -1.50652,9 -0.0376,16 -0.0376,16 -1.87244,16 c -1.02985,8.8 -1.70592,16.17121 -1.5024,16.38046 0.20352,0.20925 2.52384,-0.37706 5.15625,-1.30292 2.63242,-0.92585 5.46121,-1.77206 6.28621,-1.88046 l 1.5,-0.19708 -0.22381,2 c -0.12309,1.1 -0.52162,4.99887 -0.88562,8.66415 l -0.66181,6.66415 -3.44018,0.64539 -3.44019,0.64538 -1.42419,-1.18198 -1.4242,-1.18198 0,2.0839 0,2.0839 3.75,0.98368 3.75,0.98368 6,-0.87142 c 3.3,-0.47928 9.07795,-1.58115 12.83989,-2.4486 l 6.83988,-1.57718 0.79681,0.49246 0.79681,0.49245 1.24179,-1.49627 1.2418,-1.49628 -0.68909,-7.89953 -0.68908,-7.89953 2.0047,-21.34319 2.0047,-21.34318 0.4808,-39.75 0.4808,-39.75 -7.1249,0 -7.12491,0 0.95,-0.87161 0.95,-0.87161 7.89502,-0.62789 7.89503,-0.6279 -0.637,12.7495 c -0.35039,7.01223 -0.89292,28.27451 -1.20567,47.24951 l -0.56863,34.5 -1.53538,12.5 -1.53537,12.5 0.65703,11.5 0.65703,11.5 -1.4774,1.99585 -1.4774,1.99585 -7.33364,0.64105 c -4.03351,0.35257 -9.13365,1.15081 -11.33365,1.77387 l -4,1.13282 -6.24641,0.0174 -6.24641,0.0174 -2.25359,-1.18681 c -1.23948,-0.65274 -2.60063,-1.68194 -3.02478,-2.2871 l -0.7712,-1.1003 0.53508,-3.08245 0.53507,-3.08245 -1.91578,-1.73376 -1.9157899,-1.73377 -3.8481,0.31622 -3.84809,0.31618 0.27593,3 0.27593,3 -1.57956999,8.5 c -0.86877,4.675 -2.18611001,14.8 -2.92743001,22.5 -0.74132,7.7 -2.1263,20.65338 -3.07773,28.78529 l -1.72989,14.78529 0.534,0.534 0.534,0.534 1.89746,-1.18498 1.89745,-1.18498 3.87642,-5.98687 3.87642,-5.98688 -1.1765,-1.88387 -1.17649,-1.88386 0,-4.45275 0,-4.45275 4,-4.62164 3.9999999,-4.62164 0.0147,-6.68918 0.0147,-6.68918 1.26029,-2.5 1.26029,-2.5 2.22497,-0.31955 2.22497,-0.31955 0,1.45292 0,1.45292 -2,0.52301 -2,0.52301 0,5.59362 c 0,3.07649 0.21585,5.59362 0.47968,5.59362 0.26382,0 1.39796,-1.8 2.52032,-4 l 2.04065,-4 1.31069,0 1.3107,0 1.35775,-2.53697 1.35774,-2.53697 1.54975,0.29845 1.54975,0.29846 0.34846,1.80939 0.34846,1.80939 -1.85621,0.48541 -1.8562,0.48541 -2.23077,3.25559 -2.23077,3.2556 0,2.18812 0,2.18812 -1.04775,0 c -0.57626,0 -2.15126,1.19071 -3.5,2.64602 l -2.45217,2.64603 0,1.9496 0,1.94961 -1.9,2.6683 -1.8999999,2.66831 0,3.73322 0,3.73323 -1.91138,3.01881 c -1.05125,1.66035 -4.87006,6.27412 -8.48624,10.25284 -3.61617,3.97872 -9.5822901,10.66853 -13.2580401,14.86625 l -6.68317,7.63223 -9.54567,4.64592 c -5.25012,2.55525 -12.30638,5.54878 -15.68059,6.65229 -3.3742,1.1035 -7.03491,2.43303 -8.13491,2.95449 -1.1,0.52147 -4.19721,1.42123 -6.88269,1.99946 l -4.8827,1.05134 -0.51043,-0.51044 -0.51044,-0.51043 1.39313,-0.48905 c 0.76622,-0.26897 6.11813,-2.07191 11.89313,-4.00653 14.59838,-4.89044 16.62188,-5.68887 24,-9.46995 l 6.5,-3.33106 6.54369,-6.82267 6.54368,-6.82266 1.2345301,-11.10242 1.23453,-11.10241 -0.59931,-0.96972 -0.59932,-0.96971 1.12146,-3.39806 1.12146,-3.39806 1.37697,-15.33239 c 0.75733,-8.43281 2.10918,-19.27321 3.00412,-24.08978 l 1.62717001,-8.75739 -0.30449001,-4.74261 -0.30449,-4.74261 -14.5000001,0 c -17.73212,0 -63.89486,1.32749 -64.8251,1.86415 -0.96835,0.55865 -36.914513,1.83168 -48.174903,1.70611 l -9.5,-0.10594 -11.5,1.55147 -11.5,1.55146 -24,-0.0271 -24,-0.0271 -6.5,-0.98638 -6.5,-0.98639 -10.614,-0.0201 -10.614,-0.0201 -2.53596,3.75 c -1.39478,2.0625 -2.8363,4.7625 -3.20339,6 l -0.66743,2.25 -2.18261,0.15753 c -1.20043,0.0866 -2.85761,0.11151 -3.68261,0.0553 -0.825,-0.0563 -4.65,-0.33443 -8.5,-0.61816 -3.85,-0.28373 -12.9625,-0.82704 -20.25,-1.20737 l -13.25,-0.6915 0,-0.97178 c 0,-0.53448 1.84283,-3.72852 4.09518,-7.09788 l 4.09517,-6.12609 -1.57656,-0.31974 -1.57657,-0.31974 -2.03064,1.42232 -2.03065,1.42232 -6.89947,-0.46736 -6.89948,-0.46736 -1.81073,2.11478 -1.81073,2.11478 -1.77776,0 -1.77776,0 -0.22138,9.75 c -0.12175,5.3625 -0.2424,12 -0.2681,14.75 -0.0257,2.75 -0.42143,9.56803 -0.87942,15.15118 l -0.83269,10.15118 -2.07545,3.34882 c -1.14149,1.84185 -3.62555,6.27382 -5.52013,9.84882 -1.89457,3.575 -4.23763,7.4 -5.20678,8.5 -0.96916,1.1 -2.52773,3.51362 -3.4635,5.3636 -2.13828,4.22729 -9.99448,15.82391 -12.96408,19.1364 -2.5897,2.8886 -7.56847,11.36759 -7.56847,12.8892 l 0,1.03319 5.25,1.57685 5.25,1.57685 7,0.59856 c 8.90378,0.76134 15.50527,0.82523 56.5,0.54686 l 33.5,-0.22748 2.76071,0.76087 2.76072,0.76087 -35.76072,0.41748 c -44.70834,0.52193 -46.7755,0.52767 -57.76071,0.16048 l -9,-0.30083 -4.28495,-1.39652 c -2.35672,-0.76808 -5.33442,-1.39651 -6.61711,-1.39651 l -2.33217,0 -2.72107,4.11182 -2.72107,4.11181 0.83819,0.75455 c 0.81965,0.73786 14.3813,3.30113 27.33818,5.16715 l 6.5,0.93611 6.5,-0.57512 c 3.575,-0.31632 11.675,-0.80788 18,-1.09236 6.325,-0.28449 13.975,-0.83151 17,-1.2156 l 5.5,-0.69836 15,0.077 c 8.25,0.0424 20.85,0.39857 28,0.79153 15.61563,0.85825 57.5,1.5285 57.5,0.92014 0,-0.23737 -0.69643,-1.12801 -1.54762,-1.9792 l -1.54762,-1.54762 0.54149,-0.54148 0.54149,-0.54149 1.80365,1.63228 1.80365,1.63228 5.16244,-0.81607 5.16244,-0.81607 1.54004,-1.27812 c 0.84702,-0.70292 1.54004,-1.87954 1.54004,-2.61468 l 0,-1.33661 -5.25,0.12538 c -2.8875,0.069 -8.2875,-0.0147 -12,-0.18597 l -6.75,-0.31137 0,-0.80159 0,-0.80159 12.98786,0.41907 12.98787,0.41906 0.63417,-2.52672 0.63417,-2.52673 -0.58573,-3.60941 -0.58573,-3.60941 -1.081,-1.081 -1.081,-1.081 -3.28768,3.91601 -3.28769,3.916 -1.73476,-0.66569 -1.73477,-0.66569 2.25129,-4.00562 2.25128,-4.00562 1.78068,0 1.78067,0 1.10285,-2.06068 1.10284,-2.06069 2.18234,0.31069 2.18234,0.31068 0.5413,4.70797 0.54131,4.70797 0.82293,0.79203 0.82294,0.79203 -0.70214,-4.25 -0.70214,-4.25 1.02889,0 c 0.56588,0 1.32793,0.48387 1.69343,1.07528 l 0.66456,1.07527 1.95407,-2.09745 1.95408,-2.09745 0.94038,0.58119 0.94039,0.58119 0,7.02432 0,7.02432 -1.25,-0.41151 -1.25,-0.4115 -0.53875,-3.92183 -0.53875,-3.92183 -0.81061,3.34065 -0.81062,3.34064 -1.95813,-0.51206 -1.95813,-0.51206 0.30749,3.17141 0.3075,3.17142 16.20021,0 16.20022,0 1.08578,-1.086 1.08579,-1.086 4.714,0.77639 4.714,0.77639 14.69098,0.0596 14.690993,0.0596 0.61803,1 0.61803,1 -18.559013,0.175 c -10.20746,0.0962 -20.02152,0.30491 -21.80902,0.46368 -5.64685,0.50159 -20.95957,0.44699 -28.84092,-0.10283 l -7.59091,-0.52956 -1.14111,2.50446 -1.14112,2.50447 -3.51797,1.6776 c -1.93488,0.9227 -3.51797,2.04428 -3.51797,2.49241 l 0,0.81479 3.25,0.077 c 1.7875,0.0423 5.275,0.3392 7.75,0.65965 2.475,0.32046 5.625,0.53316 7,0.47268 1.375,-0.0605 16.9,-0.54592 34.5,-1.07876 l 32.000003,-0.9688 3.4934,-1.08089 3.4934,-1.0809 4.5066,-0.003 4.5066,-0.003 11.5,-2.91556 c 22.92312,-5.81163 33.65223,-10.99428 46.29516,-22.36266 3.19068,-2.86902 6.9250001,-6.2289 8.2984901,-7.4664 1.37349,-1.2375 2.8143,-2.26497 3.2018,-2.28327 0.86981,-0.0411 5.20455,-3.60331 5.20455,-4.27702 0,-0.26934 1.62112,-2.22221 3.60249,-4.33971 7.0655699,-7.55101 8.1243499,-8.89958 10.0887399,-12.85 1.09397,-2.2 2.28976,-5.21839 2.6573,-6.70754 l 0.66826,-2.70753 2.4916,-2.68849 2.49161,-2.68849 0,-1.88339 0,-1.8834 3.95781,-5.22058 c 2.17679,-2.87132 4.63648,-5.99277 5.46598,-6.93656 0.82949,-0.94379 2.63024,-3.49346 4.00167,-5.66594 1.37142,-2.17248 2.98949,-4.2565 3.5957,-4.63116 0.60621,-0.37466 1.51331,-1.76249 2.01577,-3.08406 l 0.91357,-2.40222 2.52475,-0.175 c 1.38861,-0.0962 3.76225,-0.3033 5.27475,-0.4601 1.5125,-0.15681 7.25,-0.48137 12.75,-0.72126 l 10,-0.43616 3,-1.18528 3,-1.18528 7.83893,0.0741 7.83894,0.0741 4.538177,2.00746 c 2.496,1.1041 5.1419,2.00745 5.87977,2.00745 l 1.34158,0 -0.55278,8.25 c -0.30403,4.5375 -0.75054,8.87691 -0.99224,9.64313 l -0.43946,1.39313 -0.52934,-0.52935 -0.52935,-0.52934 -4.19949,1.26386 -4.199497,1.26386 -19.00758,-0.29051 -19.00758,-0.29052 -5.49004,-2.08662 c -3.01952,-1.14765 -6.2648,-2.08686 -7.21172,-2.08714 l -1.72168,-5e-4 -7.52832,9.09568 -7.52832,9.09568 0,2.40432 0,2.40432 -0.75,0.0743 c -1.75603,0.17399 -5.83686,0.98055 -6.87956,1.35972 l -1.12955,0.41076 -1.53282,4.49857 -1.53281,4.49856 0.54212,0.54213 0.54212,0.54212 4.12025,-0.53704 4.12025,-0.53703 13.5,0.94923 13.5,0.94922 6.4516,-0.79004 6.4516,-0.79004 5.16926,0.84132 5.16927,0.84132 3.87913,-1.3504 3.87914,-1.35041 6.17881,0.56181 6.1788,0.5618 0.6965,-3.71265 0.6965,-3.71265 -1.1752,-1.17531 -1.1752,-1.1753 -17.7001,-0.1584 c -9.73506,-0.0871 -18.48761,-0.19963 -19.45011,-0.25 l -1.75,-0.0916 8.7e-4,-0.75 8.7e-4,-0.75 17.24913,-0.0822 17.24913,-0.0822 4.17073,-0.66695 4.17074,-0.66694 0.663487,3.02086 0.66349,3.02087 -0.65889,3.89994 -0.658887,3.89993 -1.67533,0.74854 -1.67534,0.74853 -9.5,0.30426 c -20.54822,0.65808 -41.05345,0.69328 -52.5,0.0901 l -12,-0.63233 -3.72741,0.69878 -3.72741,0.69878 -8.4175899,8.25 c -4.62967,4.5375 -8.68378,8.25 -9.00913,8.25 -0.32535,0 -2.14403,1.6875 -4.04152,3.75 l -3.44997,3.75 -1.1525001,4.5 -1.1525,4.5 -0.98641,16 c -0.54252,8.8 -1.21439,19.0375 -1.49304,22.75 l -0.50664,6.75 -1.5219,0 -1.5219,0 0.6908,-14.75 c 0.37994,-8.1125 1.10475,-17.675 1.61068,-21.25 0.50593,-3.575 1.20541,-8.525 1.55438,-11 l 0.6345,-4.5 -2.39122,2.11505 c -2.96239,2.62024 -13.19566,9.20114 -17.89122,11.50563 -4.08061,2.00269 -17.00771,6.6471 -20.26082,7.27925 -1.23155,0.23932 -4.79444,1.11421 -7.91753,1.94421 l -5.67836,1.50909 -11.82164,1.11659 c -6.50191,0.61412 -12.49665,1.356 -13.32165,1.64863 -0.825,0.29263 -10.725003,0.70015 -22.000003,0.9056 -11.275,0.20545 -25.675,0.65576 -32,1.00069 l -11.5,0.62714 -13,-1.52624 -13,-1.52623 -33,-0.79752 c -51.15443,-1.23625 -81.04648,-0.79065 -105,1.56525 l -7,0.68847 -8.5,-1.17876 c -14.92623,-2.06994 -23.41714,-3.30248 -26.53181,-3.85134 l -3.0318,-0.53427 -1.90772,3.22951 -1.90771,3.2295 -0.13824,13.37082 -0.13824,13.37081 2.07776,0.78212 2.07776,0.78211 9.19276,-0.28161 9.19277,-0.28162 3.59594,-1.18676 3.59593,-1.18677 1.47363,1.223 1.47363,1.22301 -0.92284,1.11732 c -0.50757,0.61453 -1.2382,2.80482 -1.62362,4.86732 l -0.70078,3.75 1.61129,0 1.61129,0 -0.012,1.75 -0.012,1.75 -2.58374,4.5 c -1.42105,2.475 -3.60923,6.3 -4.86262,8.5 -4.28202,7.51598 -10.8312,17.99649 -13.18171,21.09439 -1.29131,1.70192 -2.34784,3.41944 -2.34784,3.81672 0,0.39728 -1.125,2.19728 -2.5,4 -1.375,1.80272 -2.5,3.53342 -2.5,3.846 0,0.31258 -1.57268,2.95627 -3.49485,5.87497 -1.92216,2.9187 -3.97592,6.7643 -4.5639,8.5459 l -1.06905,3.2393 -3.08974,1.5414 c -3.87069,1.9309 -3.78255,1.942 -3.78255,-0.4764 l 0,-2.0177 -11.25,0.5925 c -16.99348,0.895 -32.06007,2.1851 -33.83979,2.8976 l -1.58979,0.6364 -1.07072,-1.2955 z m 37.2503,-5.1796 c 1.65,-0.1337 4.6875,-0.3271 6.75,-0.4296 l 3.75,-0.1864 0,-1.9686 0,-1.9686 -1.25,0.4113 c -0.6875,0.2262 -6.65,0.6546 -13.25,0.952 l -12,0.5407 -3.24101,0.9443 -3.24101,0.9442 -4.75899,-0.2834 c -5.09475,-0.3034 -7.25899,0.1373 -7.25899,1.4782 l 0,0.8361 15.75,-0.5135 c 8.6625,-0.2824 17.1,-0.6229 18.75,-0.7567 z m 21.4535,-12.116 c 3.48762,-5.49995 8.21437,-12.92495 10.50389,-16.49995 5.50023,-8.5884 14.00392,-22.98901 15.05799,-25.5 0.80176,-1.90995 1.44315,-9.5 0.80278,-9.5 -1.72451,0 -25.30307,42.44605 -25.32432,45.58876 -0.007,1.00173 -1.54425,4.07258 -6.21391,12.41119 -4.439,7.9268 -2.15494,5.0572 5.17357,-6.5 z m -65.4535,-31.06075 c 2.75,-0.11046 6.52854,-0.25446 8.39675,-0.32002 l 3.39676,-0.11918 -0.64944,-11.25 -0.64944,-11.25 0.175,-32.5 c 0.0962,-17.875 0.23309,-47.125 0.3041,-65 0.071,-17.875 0.21847,-37.5625 0.32769,-43.75 l 0.19858,-11.25 1.375,0 1.375,0 0.62054,3.10271 0.62054,3.1027 -0.67056,1.08499 -0.67056,1.08499 -0.25694,39.5623 c -0.63612,97.94588 -0.0743,125.90517 2.5626,127.53488 l 0.72187,0.44614 2.91126,-3.90708 2.91125,-3.90707 2.33846,-1.2686 2.33845,-1.2686 5.1491,-5.94368 c 2.83201,-3.26902 5.6047,-6.7389 6.16155,-7.71082 6.59255,-11.5068 8.92527,-15.10326 12.27782,-18.92926 3.96763,-4.52795 15.23462,-21.4036 15.23462,-22.81835 0,-0.4208 1.98229,-3.48934 4.4051,-6.81898 2.4228,-3.32965 5.38974,-7.98397 6.5932,-10.34295 2.40449,-4.71318 8.19256,-13.32668 11.13991,-16.57781 1.7825,-1.96622 6.73062,-9.74706 11.08152,-17.42551 1.09077,-1.925 2.5528,-4.175 3.24894,-5 0.69615,-0.825 3.05121,-4.875 5.23347,-9 l 3.96774,-7.5 1.62432,-9 1.62432,-9 0.606,-14.15065 0.606,-14.15065 -0.95588,-0.59076 -0.95587,-0.59077 -1.48793,2.24142 c -0.81836,1.23277 -2.60777,3.43756 -3.97646,4.89951 l -2.48854,2.6581 -0.73113,14.19046 -0.73113,14.19046 2.09821,-0.66595 2.09821,-0.66595 0,0.96164 c 0,0.52889 -1.37394,2.43243 -3.0532,4.23009 -1.67925,1.79765 -4.23698,5.33274 -5.68384,7.85575 -1.44686,2.52302 -3.84266,6.1623 -5.32399,8.0873 -3.22873,4.19573 -12.07766,18.24611 -18.89402,30 -1.11635,1.925 -4.0397,6.65 -6.49634,10.5 -2.45664,3.85 -7.48022,11.95 -11.1635,18 -3.68329,6.05 -8.35738,13.25 -10.38686,16 -2.02948,2.75 -4.45033,6.35 -5.37965,8 -0.92933,1.65 -3.45574,5.23397 -5.61426,7.96437 l -3.92457,4.96437 -4.60877,9.28563 -4.60877,9.28563 -0.93112,0 -0.93111,0 -0.13671,-1.75 c -0.0752,-0.9625 -0.28276,-9.175 -0.46127,-18.25 -0.17851,-9.075 -0.74968,-23.025 -1.26926,-31 l -0.9447,-14.5 0.47467,-16 c 0.51894,-17.49231 1.72264,-34.8213 3.22997,-46.5 0.5324,-4.125 1.27072,-12.81915 1.6407,-19.32034 l 0.67269,-11.82035 1.91726,-0.70924 1.91727,-0.70924 4.32876,-8.47042 c 4.98186,-9.74841 11.74546,-21.67675 15.57623,-27.47041 1.45464,-2.2 3.19062,-5.125 3.85774,-6.5 0.66711,-1.375 2.05619,-3.85 3.08684,-5.5 9.56978,-15.32054 23.52847,-39.73413 29.73148,-52 9.82853,-19.43501 11.71982,-22.92955 12.62833,-23.33333 0.4125,-0.18334 0.75,-0.72994 0.75,-1.21467 0,-0.48474 3.15,-6.15144 7,-12.59269 3.85,-6.44124 7,-12.08214 7,-12.53533 0,-0.45319 0.44396,-0.82398 0.98658,-0.82398 l 0.98658,0 1.39806,3.34603 1.39806,3.34603 -0.88286,11.90397 c -0.48558,6.54718 -1.31828,17.75397 -1.85044,24.90397 -0.53216,7.15 -1.43387,16.375 -2.00378,20.5 -0.56992,4.125 -1.50889,15.15 -2.0866,24.5 -0.5777,9.35 -1.1875,18.35 -1.35509,20 -1.28855,12.68635 -2.65268,30.77117 -2.3443,31.07954 0.20702,0.20703 2.32347,-1.33405 4.70322,-3.42461 l 4.32681,-3.80102 -0.78261,-13.42696 c -0.90898,-15.5952 -0.79454,-25.83127 0.51345,-45.92695 0.51908,-7.975 1.18634,-19.45 1.48279,-25.5 0.29646,-6.05 0.94984,-17.75 1.45195,-26 l 0.91294,-15 -0.40171,-14.391 -0.40172,-14.391 -0.59406,-0.59406 -0.59406,-0.59406 -1.90937,2.48506 c -1.05015,1.36678 -1.91937,3.09223 -1.9316,3.83433 -0.0212,1.28481 -4.67934,9.55227 -9.69358,17.20448 -1.28076,1.95456 -2.32866,3.86105 -2.32866,4.23664 0,0.99604 -10.89125,16.76645 -13.64949,19.76433 -1.29278,1.40509 -2.35051,3.02285 -2.35051,3.59501 0,0.57216 -0.8985,1.85342 -1.99666,2.84725 -1.09816,0.99382 -5.84276,7.47606 -10.54356,14.40498 -9.36497,13.80386 -12.73055,18.57104 -19.47753,27.58893 -2.46524,3.29499 -6.96516,10.04499 -9.99983,15 -7.6018,12.41224 -12.49825,20.21664 -19.2216,30.63713 -7.46833,11.57514 -13.76082,22.71187 -13.76082,24.35452 l 0,1.30348 -1.53786,0.59013 -1.53785,0.59013 -0.50545,-1.31718 -0.50546,-1.31719 4.04331,-7.13528 c 2.22382,-3.92441 4.04331,-7.41302 4.04331,-7.75248 0,-0.33946 1.30192,-2.49076 2.89316,-4.78067 4.98581,-7.17495 12.10684,-18.52441 12.10684,-19.29581 0,-0.40632 0.84663,-1.66777 1.8814,-2.80322 1.03478,-1.13545 4.78786,-6.78945 8.34019,-12.56445 3.55233,-5.775 9.44085,-14.55 13.08561,-19.5 13.12525,-17.82563 15.41954,-21.06091 17.72871,-25 1.28967,-2.2 6.24418,-9.175 11.01001,-15.5 10.39542,-13.79634 15.64112,-21.42754 17.51922,-25.48613 0.76706,-1.65763 1.84088,-3.68887 2.38627,-4.51387 5.95055,-9.00127 12.64412,-22.7378 11.59229,-23.78964 -0.23914,-0.23913 -2.1468,-0.0247 -4.23925,0.47649 l -3.80445,0.91129 -5.40761,-1.24551 -5.4076,-1.2455 -4.39173,4.69643 -4.39173,4.69644 -6.70067,10.18554 c -8.09903,12.31117 -10.54997,16.30875 -19.50557,31.81446 -3.81195,6.6 -8.22778,13.63976 -9.81296,15.6439 -1.58517,2.00415 -2.88213,4.07191 -2.88213,4.59502 0,0.52311 -0.86612,1.73494 -1.92472,2.69295 -1.0586,0.95802 -3.18563,4.29026 -4.72673,7.40499 -1.54111,3.11473 -5.0889,9.26314 -7.88398,13.66314 -2.79509,4.4 -5.79205,9.35 -6.65993,11 -6.9829,13.27583 -8.7804,16.54092 -11.24733,20.43029 -1.54552,2.43666 -3.44214,5.81166 -4.21471,7.5 -0.77258,1.68834 -3.38855,5.76971 -5.81326,9.06971 -2.42471,3.3 -6.51078,9.73745 -9.08016,14.30545 l -4.67161,8.30546 0.64016,0.64016 c 0.35208,0.35208 1.40646,0.75262 2.34306,0.89009 0.9366,0.13746 1.8398,0.66062 2.00712,1.16257 0.16732,0.50196 0.87231,1.68957 1.56666,2.63915 l 1.26244,1.72649 5.4515,0.66532 5.45149,0.66531 0,1.5 0,1.5 -1.5,-0.0401 c -0.825,-0.0221 -4.80308,-0.42172 -8.84018,-0.8881 l -7.34018,-0.84795 0.45151,-2.36191 0.4515,-2.3619 -0.80231,0 c -1.61579,0 -1.8227,2.05446 -2.47398,24.5656 -0.36494,12.61392 -0.79908,26.0844 -0.96475,29.9344 -0.16567,3.85 -0.37815,15.1 -0.47218,25 -0.094,9.9 -0.58876,26.25207 -1.09941,36.33794 l -0.92845,18.33795 1.05122,23.0755 c 0.57816,12.69153 1.3064,23.48842 1.6183,23.99309 l 0.5671,0.91757 2.6409,-0.761 c 1.4525,-0.4186 4.89091,-0.85143 7.64091,-0.96189 z m 42.17441,-48.9392 c 4.99142,-7.15 12.54847,-18.85 16.79345,-26 4.24498,-7.15 8.71963,-14.35 9.94368,-16 1.22405,-1.65 3.71647,-5.7 5.53872,-9 3.63669,-6.58587 4.97854,-8.73985 13.66633,-21.93752 10.35294,-15.7272 13.3931,-20.74783 13.88497,-22.9301 0.26435,-1.17281 0.66453,-8.09488 0.8893,-15.38238 l 0.40868,-13.25 -0.85536,0 c -0.47045,0 -2.51314,1.125 -4.53932,2.5 l -3.68395,2.5 -2.32551,0 c -1.27903,0 -4.44976,0.7212 -7.04607,1.60267 l -4.72057,1.60268 -3.69575,-1.10728 -3.69576,-1.10727 -1.15809,-1.39541 -1.15809,-1.39542 -0.9881,-6.34998 c -0.54345,-3.4925 -1.26758,-7.02499 -1.60916,-7.84999 l -0.62107,-1.5 0.24647,-6.92486 0.24647,-6.92486 2.44539,-3.87376 c 1.34497,-2.13056 2.87726,-5.00962 3.40508,-6.3979 l 0.95968,-2.52415 1.66833,0.32277 1.66832,0.32276 1.12559,5.5 c 0.61908,3.025 1.66702,6.48292 2.32876,7.68426 l 1.20317,2.18426 0,3.53723 0,3.53722 2.38836,5.4005 c 1.31359,2.97027 2.87316,5.70012 3.4657,6.06633 l 1.07735,0.66584 4.03429,-2.05814 4.0343,-2.05815 0,-0.97967 0,-0.97968 1.80887,0 c 0.99488,0 2.55891,-0.5625 3.47564,-1.25 l 1.66676,-1.25 1.56781,-18.5 c 0.8623,-10.175 1.97113,-25.025 2.46408,-33 0.49295,-7.975 1.56474,-20.35 2.38175,-27.5 0.81702,-7.15 2.032,-21.67465 2.69995,-32.27701 l 1.21446,-19.27701 -0.52921,-0.5292 -0.5292,-0.5292 -4.68732,7.80621 c -7.54109,12.55885 -13.1555,22.73302 -22.13356,40.10935 -4.63296,8.96672 -9.17155,17.44471 -10.08576,18.83997 -0.9142,1.39526 -2.37141,3.76958 -3.23823,5.27626 -2.91457,5.06603 -19.33997,32.54562 -21.56651,36.08063 -1.21247,1.925 -6.38799,11.375 -11.50117,21 -5.11317,9.625 -10.06041,18.23851 -10.99385,19.14113 l -1.69717,1.64113 -0.68861,14.85887 -0.68861,14.85887 -0.96073,4 c -0.52841,2.2 -1.26051,8.275 -1.6269,13.5 l -0.66616,9.5 0.11671,24 c 0.0642,13.2 0.27588,25.35 0.47044,27 0.19456,1.65 0.44097,11.1 0.54757,21 l 0.19382,18 4.29212,-7.5 c 2.36066,-4.125 8.376,-13.35 13.36742,-20.5 z m -56.71326,-29.25 -0.0389,-4.75 -4.95107,-2.41014 -4.95106,-2.41014 -1.4944,-2.28074 -1.4944,-2.28074 -0.59856,-5.30912 -0.59857,-5.30912 1.57988,-3.7107 1.57988,-3.7107 6.003,-4.07656 6.003,-4.07656 0,-2.34611 0,-2.34611 -2.15014,-0.56227 -2.15014,-0.56227 -4.85886,0.92146 -4.85885,0.92146 -4.24101,2.35307 -4.241,2.35307 -3.17556,4.15126 -3.17556,4.15125 -0.67805,5.42688 -0.67804,5.42687 0.70806,4.19101 0.70807,4.191 6.17532,6.2981 6.17532,6.2981 6.47022,2.04771 c 3.55862,1.12624 7.03272,2.07298 7.72022,2.10387 l 1.25,0.0562 -0.0388,-4.75 z m 0.0235,-23 0.0153,-12.25 -0.90823,0 c -0.49952,0 -3.02785,2.06004 -5.6185,4.57787 l -4.71027,4.57786 0.67589,5.09511 c 0.37174,2.80231 1.12878,5.94135 1.68232,6.97564 l 1.00643,1.88054 3.14726,1.91397 3.14727,1.91396 0.7736,-1.21747 0.7736,-1.21748 0.0153,-12.25 z m 459.6194831,-35.97917 -0.60417,-0.60416 -0.60014,0.60013 -0.60013,0.60014 0.78322,1.26727 0.78322,1.26728 0.42108,-1.26324 c 0.2316,-0.69479 0.14921,-1.53513 -0.18308,-1.86742 z m 29.1458299,-9.00341 c 1.7875,-2.06006 3.25,-4.14888 3.25,-4.64182 0,-0.49294 1.0125,-1.87686 2.25,-3.07538 1.2375,-1.19851 2.75972,-3.05011 3.38272,-4.11467 l 1.13271,-1.93555 0.7523,0.71835 c 0.41377,0.39509 0.80405,1.73748 0.86729,2.98308 l 0.11498,2.26474 6.72537,2.70417 6.72537,2.70418 3.01195,-0.86382 3.01196,-0.86382 6.76267,0.3857 c 3.71948,0.21214 9.78139,0.61652 13.47092,0.89864 l 6.70824,0.51293 0.60078,-0.97208 0.60077,-0.97207 2.69099,-0.0153 c 1.480037,-0.008 3.183887,-0.34592 3.786347,-0.75 l 1.09536,-0.73469 0.60873,-3.85453 0.60873,-3.85454 -0.58613,-2.93062 -0.58612,-2.93062 -4.585707,-2.08903 -4.58571,-2.08903 -6.36266,0.13797 -6.36266,0.13796 -4.6696,1.06419 -4.6696,1.06418 -11.36477,0.39107 c -6.25062,0.21509 -12.14882,0.63993 -13.10711,0.94408 l -1.74235,0.553 0.47369,2.47796 0.47369,2.47796 -1.63801,0 -1.63802,0 -1.2082,2.75 c -0.66452,1.5125 -1.45763,2.975 -1.76247,3.25 -0.93757,0.84578 -7.63285,9.42396 -8.39039,10.75 l -0.71409,1.25 0.80901,0.007 c 0.44496,0.004 2.27152,-1.67901 4.05902,-3.73908 z m -391.191133,-23.73562 1.94113,-1.46819 -1.2152,-0.0318 c -0.66837,-0.0175 -2.80587,-1.42842 -4.75,-3.13539 l -3.5348,-3.1036 0,-1.81462 c 0,-0.99805 -0.27314,-2.52643 -0.60699,-3.39641 l -0.60699,-1.58179 -1.01684,0 -1.01684,0 0.44846,5.40788 0.44847,5.40789 1.69842,2.59211 1.69842,2.59212 2.28581,0 2.28582,0 1.94113,-1.4682 z m 5.44113,-4.5318 c 0,-0.55 -0.44718,-1 -0.99373,-1 l -0.99373,0 -2.95737,-4.08254 -2.95738,-4.08254 -0.66893,-4.46078 -0.66894,-4.46078 -1.12996,0.37165 -1.12996,0.37165 -0.3098,2.09727 -0.3098,2.09728 2.20071,5.3244 2.20072,5.32439 1.96987,1.75 1.96987,1.75 1.88921,0 1.88922,0 0,-1 z m 7.74441,-1.20284 c 0.69057,-0.57313 1.25559,-1.40353 1.25559,-1.84534 l 0,-0.8033 -3.98983,1.67574 -3.98983,1.67574 -0.0102,0.85841 -0.0102,0.85841 2.74441,-0.68881 c 1.50942,-0.37884 3.30942,-1.15772 4,-1.73085 z m 56.02762,-11.64512 c -0.009,-2.00862 0.3274,-4.94827 0.7474,-6.53255 l 0.76362,-2.88051 -1.32008,0.44003 c -0.72605,0.24202 -1.80223,1.2962 -2.39153,2.34263 -0.58929,1.04642 -2.12703,3.66645 -3.41719,5.82228 l -2.34575,3.91969 1.11901,0.69159 1.11901,0.69159 2.87087,-0.42136 2.87086,-0.42135 -0.0162,-3.65204 z m 12.44276,4.29984 0.54812,-0.54812 -1.00309,-3.95188 -1.0031,-3.95188 -0.815,0 -0.815,0 -0.31336,3.25 -0.31336,3.25 -1.5,0 -1.5,0 -0.61836,-3.5 -0.61836,-3.5 -0.13164,2.66821 c -0.0724,1.46752 -0.39104,3.34421 -0.70809,4.17043 l -0.57646,1.50222 2.32646,0.44339 c 3.66148,0.69782 6.44478,0.76408 7.04124,0.16763 z m 9.85645,-0.43145 c 1.87856,0.53876 4.69353,0.97957 6.25549,0.97957 l 2.83994,0 -0.42497,-1.25 -0.42497,-1.25 -2.90836,0 -2.90837,0 -0.5,-7 -0.5,-7 -8.41294,0 -8.41293,0 -0.34916,1.03628 -0.34916,1.03629 2.2621,0.16463 2.26209,0.16463 2.75,3.06486 2.75,3.06486 0,4.10667 0,4.10667 1.32784,-1.10201 1.32785,-1.10202 3.41555,0.97957 z m -98.31703,-17.74254 -1.37779,-4.77789 -1.68821,3.20034 -1.68821,3.20034 0,5.74666 0,5.74667 3.066,-4.16912 3.066,-4.16911 -1.37779,-4.77789 z m 104.83419,8.97717 -0.5884,-0.58839 -0.62354,0.62354 -0.62354,0.62353 0.7783,1.79313 0.7783,1.79313 0.43364,-1.82827 0.43363,-1.82827 -0.58839,-0.5884 z m 279.781313,-2.50506 c 0.33164,-1.2375 0.60913,-3.0375 0.61664,-4 l 0.0136,-1.75 -3,0 -3,0 0,1 0,1 -1.19061,-0.25 -1.19061,-0.25 -0.39197,1.79804 -0.39196,1.79804 1.20502,1.45196 1.20502,1.45196 2.76092,0 2.76093,0 0.60297,-2.25 z m 66.47321,-152.68384 9.65708,-1.93383 21.784497,0.25126 21.78451,0.25127 4.46549,-5.22692 c 2.45603,-2.87481 4.4655,-5.68015 4.4655,-6.2341 0,-0.55394 0.367,-1.15717 0.81555,-1.34051 0.44855,-0.18333 2.97948,-3.03333 5.6243,-6.33333 2.64481,-3.3 7.10324,-8.42992 9.90763,-11.39983 2.80439,-2.96991 8.27374,-9.10559 12.15411,-13.63486 l 7.05522,-8.23504 2.89046,-5.31072 c 1.58975,-2.9209 6.52697,-10.46296 10.97159,-16.76012 10.95957,-15.52758 12.79303,-18.23 14.85537,-21.8961 2.27678,-4.04731 6.72577,-15.84631 6.72577,-17.83719 l 0,-1.52819 -3.55316,-1.48461 -3.55316,-1.4846 -4.86015,0.88336 -4.86016,0.88336 -6.83668,-0.26754 c -3.76018,-0.14714 -14.93669,-0.35936 -24.83669,-0.4716 l -18,-0.20406 -1.7063,-0.88793 -1.7063,-0.88792 -20.5482,-0.38544 -20.54819,-0.38544 -0.55452,0.89723 -0.55452,0.89724 -2.00053,0 -2.00053,0 -4.5155,3.75 -4.515497,3.75 -3.52375,6.27276 -3.52375,6.27276 -6.6512,7.90248 c -3.65817,4.34636 -8.67621,10.69591 -11.15121,14.11012 -2.475,3.41421 -4.95,6.71035 -5.5,7.32477 -0.55,0.61441 -2.26698,2.81323 -3.8155,4.88627 -1.54853,2.07303 -3.96126,4.99803 -5.36161,6.5 -4.27702,4.58733 -17.59992,21.33715 -22.62741,28.44763 -5.28762,7.47838 -20.58702,26.09738 -21.87106,26.61654 -0.45343,0.18334 -0.82442,0.97084 -0.82442,1.75 l 0,1.41667 6.25,0.22335 c 3.4375,0.12284 9.175,0.31019 12.75,0.41635 23.26033,0.69065 41.49459,1.52156 41.88151,1.90848 0.92251,0.92251 6.57444,0.39773 15.96141,-1.48202 z m -71.95659,320.48679 c -1.38398,-1.38398 -19.2811899,-3.03212 -30.63629,-2.82127 l -8.25,0.15319 0,-14.44243 0,-14.44244 0.92646,0 0.92647,0 0.0715,11.41299 0.0715,11.41299 0.63105,1.64448 0.63104,1.64448 1.24184,-0.47654 1.24184,-0.47654 6.8791201,0.95245 c 3.78352,0.52384 10.02912,1.1707 13.87912,1.43746 l 6.9999999,0.48501 4.18213,1.5384 4.18213,1.53839 4.01079,-0.40108 4.0108,-0.40107 1.30707,0.82897 1.30708,0.82898 -6.58333,0.0153 c -3.62084,0.008 -6.78451,-0.18586 -7.03038,-0.43174 z m 15.11371,-0.52795 0,-0.975 3.25,0.61864 c 4.55729,0.86748 4.70246,1.33136 0.41667,1.33136 l -3.66667,0 0,-0.975 z m 33,-0.025 0,-1 1.05902,0 1.05901,0 -0.61803,1 c -0.33992,0.55 -0.81648,1 -1.05902,1 -0.24254,0 -0.44098,-0.45 -0.44098,-1 z m 5.26903,0.30701 c 0.97297,-0.25354 2.32297,-0.23687 3,0.0371 l 1.23097,0.49805 -3,-0.0371 -3,-0.0371 1.76903,-0.46099 z m 7.23508,-0.30035 -0.61391,-0.99334 2.5549,0.21145 2.5549,0.21145 0,0.78189 0,0.78189 -1.94098,0 -1.94099,0 -0.61392,-0.99334 z m 6.19873,-10.11315 -1.79716,-1.04567 -24.59378,0.41203 -24.59378,0.41204 -5.55139,-1.29046 -5.55139,-1.29047 -4.55767,0.59307 c -2.50672,0.32618 -5.36217,1.00564 -6.34544,1.50991 l -1.7877799,0.91684 -1.96222,-0.62279 -1.96223,-0.62279 0,-5.31598 0,-5.31598 2.25,-0.68096 c 1.2375,-0.37453 7.1999999,-0.79134 13.2499999,-0.92624 6.05,-0.13491 14.15,-0.61877 18,-1.07525 l 7,-0.82997 -0.74606,0.8023 c -0.41033,0.44127 -2.21033,0.95839 -4,1.14916 -1.78967,0.19077 -6.84213,0.79255 -11.22771,1.33728 -4.38557,0.54473 -10.41096,0.99042 -13.38975,0.99042 l -5.41599,0 -1.32844,1.75 -1.3284399,1.75 -0.0318,2.35699 -0.0318,2.35699 1.4324799,-0.5497 c 0.78786,-0.30233 4.05622,-0.84653 7.26302,-1.20934 l 5.83055,-0.65965 4.46067,1.20113 4.46066,1.20114 9.52631,-0.15285 c 5.23947,-0.0841 17.62631,-0.32216 27.52631,-0.5291 l 18,-0.37626 0.30479,-4.56968 0.30479,-4.56967 -4.30479,-0.15252 c -2.36763,-0.0839 -11.42738,-0.26898 -20.13276,-0.41131 -8.70539,-0.14233 -16.0455,-0.47631 -16.31136,-0.74217 -0.26586,-0.26586 2.13172,-0.77451 5.32797,-1.13034 l 5.81136,-0.64695 14.38741,0.54485 14.38741,0.54486 1.29527,-1.75321 1.29527,-1.75321 0.92532,1 0.92533,1 -0.70787,7.21663 -0.70786,7.21663 -1.27258,1.53337 c -1.48409,1.78821 -1.91252,1.8305 -4.32486,0.42688 z m -74.53495,-21.76378 -1.3321099,-0.84926 -0.54731,-6.03579 -0.54731,-6.03579 2.07965,-1.11299 2.0796499,-1.11299 7.29977,-0.5856 7.29977,-0.5856 6.11848,1.0174 6.11848,1.0174 4.38152,-1.02519 c 2.40984,-0.56385 7.08152,-1.18153 10.38152,-1.37263 3.3,-0.19109 9.6,-0.63761 14,-0.99227 l 8,-0.64482 4,0.90836 4,0.90837 3.49046,-0.73704 3.49046,-0.73705 1.25954,1.04532 1.25954,1.04533 0,5.18643 0,5.18642 -1.41906,1.94113 -1.41906,1.94113 -18.83094,-0.16653 c -10.35702,-0.0916 -25.10657,-0.21061 -32.77678,-0.26448 l -13.94584,-0.0979 -5.05416,0.94172 c -2.77979,0.51794 -5.72916,1.19473 -6.55416,1.50397 l -1.5,0.56226 -1.33211,-0.84926 z m 16.86386,-3.95301 9.46825,-0.76024 9,0.46409 c 4.95,0.25525 15.12186,0.39314 22.60414,0.30644 l 13.60414,-0.15765 3.89586,-0.80373 3.89586,-0.80372 0.32284,-3.33811 0.32284,-3.33812 -0.97787,-0.97787 -0.97787,-0.97787 -4.84497,-0.38115 c -2.66473,-0.20964 -6.86997,-0.74367 -9.34497,-1.18675 l -4.5,-0.8056 -3.5,0.73857 c -6.05647,1.27802 -22.01612,2.13306 -35.18344,1.88495 l -12.68344,-0.239 -3.56656,1.17707 -3.56656,1.17707 0,4.25579 0,4.25578 0.7018,0.7018 0.7018,0.7018 2.57995,-0.56666 c 1.41897,-0.31166 6.84066,-0.90876 12.0482,-1.32689 z m -236.331933,-8.77105 c -0.19303,-0.15519 -25.87892,-1.31598 -30.44982,-1.37608 l -2.25,-0.0296 0,-1.89496 0,-1.89497 -4.25,-0.44975 -4.25,-0.44976 -1.67756,0.84113 -1.67756,0.84114 -1.57244,-0.6034 -1.57244,-0.60341 0.007,-2.14301 0.007,-2.14301 1.98682,-3 1.98682,-3 0.0193,-2.5 0.0192,-2.5 2.94367,-5.80435 2.94366,-5.80434 2.29367,-1.91239 c 1.26152,-1.05181 2.86731,-1.92735 3.56842,-1.94565 l 1.27394,-0.0333 0.97525,2.5651 c 0.53639,1.4108 0.97489,3.9983 0.97446,5.75 l -7.9e-4,3.1849 -2.84084,6 -2.84085,6 -1.65837,1.37244 -1.65836,1.37245 0,1.37755 0,1.37756 1.97432,0 1.97432,0 1.45381,-2.81136 1.45381,-2.81135 3.73299,-3.18865 3.733,-3.18864 1.33887,0 1.33888,0 0,2.39424 0,2.39425 -2.90121,3.10575 -2.90121,3.10576 -1.67211,0 -1.67212,0 0.36431,1.75 0.36432,1.75 2.40576,-0.27307 2.40577,-0.27307 1.77966,-1.61058 1.77967,-1.61057 -0.45997,-0.74425 -0.45997,-0.74425 4.01917,-4.56602 4.01917,-4.56603 2.13819,-0.67863 2.13818,-0.67863 1.28073,1.7515 1.28073,1.75151 -1.85722,3.62104 c -1.02147,1.99158 -3.00109,4.68859 -4.39917,5.99335 l -2.54195,2.37231 -2.41502,-0.60613 -2.41501,-0.60613 -1.79534,1.98382 -1.79534,1.98383 4.90499,0.0941 c 2.69775,0.0518 6.47999,0.21545 8.40499,0.36376 1.925,0.1483 7.6625,0.33095 12.75,0.40589 l 9.25,0.13625 0,1.0154 0,1.01541 -5.55018,-0.23225 c -3.0526,-0.12774 -5.6401,-0.30454 -5.75,-0.39289 z m -10.69982,-16.09995 0,-1.30572 -0.89903,0 -0.89904,0 -2.03331,3.90099 -2.03331,3.90099 0.58559,0.58558 0.58558,0.58559 2.34676,-3.18086 c 1.29072,-1.74947 2.34676,-3.76842 2.34676,-4.48657 z m -26.41225,1.43745 c 1.14827,-1.78374 2.82538,-4.44899 3.72693,-5.92277 l 1.63917,-2.6796 0.55795,-3.8204 0.55796,-3.8204 -0.95867,-1.4357 -0.95866,-1.4357 -1.73535,1.4357 -1.73535,1.4357 -2.3311,5 -2.33109,5 -0.01,4.75 -0.01,4.75 0.75,-0.007 c 0.4125,-0.004 1.68949,-1.46626 2.83775,-3.25 z m 49.61833,11.2247 -2.29392,-4.01673 0.60294,-0.97557 c 0.97642,-1.57988 2.213,-1.12333 2.77465,1.02443 l 0.52301,2 2.12501,0 2.125,0 0.63696,-1.6599 0.63697,-1.6599 -2.81269,-2.24276 -2.81269,-2.24276 0.61295,-1.59734 0.61296,-1.59734 1.53139,0 1.53138,0 0,-1 0,-1 2,0 2,0 0,2 0,2 -1.67431,0 -1.67432,0 2.17432,2.31445 2.17431,2.31445 0,1.51059 0,1.51058 -1.75,1.62855 c -4.12418,3.83796 -6.26624,5.72088 -6.5,5.71368 -0.1375,-0.004 -1.28226,-1.81523 -2.54392,-4.02443 z m 110.793923,3.09115 0,-1.05902 3.25,-0.12762 c 4.03045,-0.15827 6.21867,-0.42938 11,-1.36285 l 3.75,-0.73211 0,0.99466 0,0.99466 -1.75,0.44455 c -0.9625,0.24451 -4.66365,0.55795 -8.22479,0.69654 -3.56113,0.13859 -6.82363,0.46759 -7.25,0.7311 l -0.77521,0.4791 0,-1.05901 z m -45.360523,-4.75287 -0.63948,-0.63948 0.006,-5.58334 c 0.006,-5.55146 0.97405,-12.80097 3.04977,-22.83333 l 1.08624,-5.25 1.4291,0 1.4291,0 0,0.84004 c 0,0.46202 -0.89775,4.35022 -1.99501,8.64045 l -1.99501,7.80041 -0.15672,8.39431 -0.15671,8.3943 -0.7088,0.43806 c -0.38983,0.24093 -0.99656,0.15029 -1.34827,-0.20142 z m -144.59395,-1.75129 -1.18199,-1.42421 0.31823,-3.30714 0.31823,-3.30713 1.66568,-0.31528 1.66568,-0.31527 0.33598,1.74458 0.33598,1.74458 3.63035,-3.18749 c 4.16299,-3.65516 4.88795,-3.87177 4.81105,-1.4375 l -0.0553,1.75 -5.33096,4.73953 -5.33096,4.73954 -1.18199,-1.42421 z m -40.45227,-1.10446 -1.71446,-1.71446 2.37347,-2.61797 c 1.30541,-1.43988 4.10929,-4.95968 6.23085,-7.82177 l 3.85738,-5.20379 0.82975,0.51281 c 0.45636,0.28205 0.82975,1.11402 0.82975,1.84884 l 0,1.33602 -2.48272,2.35496 c -1.3655,1.29523 -2.4905,2.74909 -2.5,3.2308 l -0.0173,0.87583 11.5,-0.44019 11.5,-0.44018 0,1.18935 0,1.18935 -3.125,0.625 c -1.71875,0.34375 -4.40292,0.625 -5.96482,0.625 l -2.83981,0 -1.02215,1.9099 -1.02215,1.9099 -4.26303,0.65617 c -2.34467,0.36089 -5.6563,0.88853 -7.35918,1.17253 l -3.09615,0.51635 -1.71445,-1.71445 z m 11.65674,-2.29944 1.75,-0.15096 0,-1 0,-1 -2.75,0.0136 c -3.39284,0.0169 -7.2501,1.00274 -7.24971,1.85298 l 3e-4,0.63337 3.2497,-0.099 c 1.78734,-0.0545 4.03721,-0.16697 4.99971,-0.25 z m 153.0773,2.25959 -0.60993,-1.58946 2.89131,-2.85309 2.89132,-2.85309 3,-0.30745 3,-0.30746 0.30479,4.75 0.30479,4.75 -1.43234,0 -1.43235,0 -1.22964,-1.48162 -1.22964,-1.48163 -2.11531,1.48163 c -2.69587,1.88826 -3.5855,1.86617 -4.343,-0.10783 z m -32.77425,-2.05519 -0.66376,-2.64465 0.96822,-0.96822 0.96823,-0.96823 1.08713,0.67189 1.08713,0.67188 0,2.94099 0,2.94098 -1.39159,0 -1.39159,0 -0.66377,-2.64464 z m -77.55305,-2.43869 0,-4.08334 1.2243,0.4081 1.22429,0.4081 0.64255,3.14172 0.64255,3.14172 -0.53351,0.53352 c -0.29343,0.29343 -1.13351,0.53351 -1.86685,0.53351 l -1.33333,0 0,-4.08333 z m 298.284273,-2.91951 -3.21572,-0.73054 -10.46862,0.37743 -10.46861,0.37744 -0.50568,-0.8182 c -0.27812,-0.45 -0.82352,-3.21429 -1.21201,-6.14286 l -0.7063399,-5.32467 1.3927399,0.46425 1.39274,0.46425 0.59799,3.67891 c 0.3289,2.02341 0.8694,3.95033 1.20113,4.28205 l 0.60313,0.60313 11.80249,0.46736 c 6.49137,0.25704 17.65249,0.39905 24.80249,0.31558 l 13,-0.15178 4,-0.90531 4,-0.90531 9.63337,-0.0244 9.63337,-0.0245 0.60297,-2.25 c 0.33164,-1.2375 0.60913,-3.23261 0.61664,-4.43359 l 0.0136,-2.18357 -10.25,-0.31642 -10.25,-0.31641 -4.61677,0.92019 -4.61676,0.92019 -4.38324,-1.07437 -4.38323,-1.07437 3.5,-0.046 c 6.54393,-0.086 34.4931,-1.82039 36,-2.23395 l 1.5,-0.41168 0.30266,4.69783 0.30266,4.69782 -1.63945,3.17035 -1.63945,3.17034 -9.16321,-0.48727 -9.16321,-0.48727 -5,0.79855 c -2.75,0.43921 -10.625,0.99403 -17.5,1.23295 l -12.5,0.4344 -3.21573,-0.73054 z m -220.276833,-4.9792 -1.2352,-2.98204 0.64666,-1.68518 0.64667,-1.68517 0.8894,0.91721 c 0.48917,0.50447 1.1995,2.60472 1.5785,4.66722 l 0.68911,3.75 -0.98997,0 -0.98997,0 -1.2352,-2.98204 z m -75.83671,-0.0855 -0.87224,-2.35789 0.46738,-1.78729 0.46739,-1.7873 1.32659,0 1.32659,0 -0.22031,3.44375 c -0.12117,1.89407 -0.53595,3.7594 -0.92173,4.14519 l -0.70143,0.70143 -0.87224,-2.35789 z m 272.829273,-8.43246 0,-1.5 2.44098,0 2.44099,0 0.54777,0.88631 0.54777,0.88631 -2.23876,0.60004 c -1.23131,0.33001 -2.57625,0.60618 -2.98875,0.61369 l -0.75,0.0136 0,-1.5 z m 20.75,0.71186 -1.75,-0.35851 0,-0.9204 0,-0.9204 2.25,0.41941 c 1.2375,0.23068 2.8125,0.45286 3.5,0.49373 l 1.25,0.0743 0,0.93785 0,0.93785 -1.75,-0.15266 c -0.9625,-0.084 -2.5375,-0.314 -3.5,-0.51118 z m 6.25,-0.18048 0,-0.96861 1.5,0.5756 c 0.825,0.31659 1.5,0.75246 1.5,0.96862 0,0.21615 -0.675,0.39301 -1.5,0.39301 l -1.5,0 0,-0.96862 z m 5.5,-0.0314 -0.61803,-1 3.30901,0.0703 3.30902,0.0703 -2,0.85943 c -2.71291,1.16578 -3.27951,1.16578 -4,0 z m -25.5,-1 0,-1 4.94098,0 4.94099,0 0.61803,1 0.61803,1 -5.55901,0 -5.55902,0 0,-1 z m 22.55,-26.8273 0.95,-0.8273 6.5,0.67481 6.5,0.67482 -7.45,0.15248 -7.45,0.15249 0.95,-0.8273 z m -9.28097,-0.86569 c 0.97297,-0.25354 2.32297,-0.23687 3,0.0371 l 1.23097,0.49805 -3,-0.0371 -3,-0.0371 1.76903,-0.46099 z m 5.54347,0.01 1.3125,-0.52522 0.60417,0.60416 0.60416,0.60417 -1.91666,-0.079 -1.91667,-0.0789 1.3125,-0.52522 z m -7.8125,-35.70349 c 0,-0.21258 1.32623,-0.58115 2.94719,-0.81906 l 2.94718,-0.43255 -0.5062,0.81905 -0.5062,0.81906 -2.44099,0 c -1.34254,0 -2.44098,-0.17393 -2.44098,-0.3865 z m 8.01261,-1.64245 c 1.82839,-1.15602 2.98739,-1.22735 2.98739,-0.18385 l 0,0.78719 -2.23739,0.16854 -2.23739,0.16854 1.48739,-0.94042 z m -10.31614,-22.72105 c -0.23186,-0.4125 -0.14592,-4.09185 0.19098,-8.17634 l 0.61255,-7.42634 5,-0.0737 5,-0.0737 -0.30178,2 c -0.16598,1.1 -0.56073,4.1375 -0.87723,6.75 l -0.57545,4.75 -1.68164,0 c -0.9249,0 -2.55515,0.66069 -3.62277,1.4682 -2.20322,1.66643 -3.13776,1.86154 -3.74466,0.7818 z m 6.11689,-8.00819 0.31336,-3.24181 -1.45637,0 -1.45637,0 -0.60699,1.58179 c -0.33385,0.86998 -0.60699,2.47798 -0.60699,3.57332 l 0,1.99154 1.75,-0.33152 1.75,-0.33151 0.31336,-3.24181 z m -268.158373,-3.07055 -1.65499,-1.82874 0,-1.72702 0,-1.72703 2.26541,2.6337 2.26541,2.63369 2.60912,-0.65485 2.60912,-0.65484 1.12547,-2.47014 1.12547,-2.47014 0,-3.89393 0,-3.89393 -0.9495,-0.58682 -0.94951,-0.58683 -2.26265,3.06041 -2.26266,3.0604 -2.94148,1.46741 c -1.61781,0.80707 -3.32234,1.4674 -3.78784,1.4674 l -0.84636,0 0,-1.94098 c 0,-1.06754 -0.38219,-2.1772 -0.84932,-2.4659 l -0.84932,-0.5249 -2.14407,2.46589 -2.14406,2.46589 -1.538,0 -1.538,0 -0.57646,-1.50224 -0.57646,-1.50223 0.60755,-2.42069 0.60756,-2.4207 2.6342,-3.13057 2.6342,-3.13057 2.61609,0.3035 2.61609,0.3035 0.5,4.35135 0.5,4.35135 3.44867,-4.61846 3.44868,-4.61846 1.05132,0.51647 c 0.57823,0.28405 1.78307,0.77966 2.67743,1.10134 l 1.6261,0.58487 1.08405,2.16577 c 1.23454,2.4664 1.44934,3.86341 1.28223,8.33904 l -0.11848,3.17328 -2.58889,3.07672 -2.5889,3.07673 -3.25612,0 -3.25611,0 -1.65499,-1.82874 z m -7.65499,-13.73028 0,-1.55901 -1,0.61803 c -0.55,0.33992 -1,1.04148 -1,1.55902 0,0.51754 0.45,0.94098 1,0.94098 l 1,0 0,-1.55902 z m 72,14.16743 0,-1.39159 -2.28015,-0.57228 -2.28015,-0.57229 -2.22517,0.5819 -2.22518,0.5819 -1.40565,-1.16658 -1.40564,-1.16659 -0.64805,1.04856 -0.64804,1.04856 -2.72538,0 -2.72537,0 -1.71561,-2.90429 -1.71561,-2.90429 0,-3.59571 0,-3.59571 -0.92508,0 -0.92507,0 -2.3506,4.25 -2.3506,4.25 -2.2553,0 -2.2553,0 -0.92738,1.49164 -0.92739,1.49164 -1.11444,-1.11444 -1.11443,-1.11443 1.11134,-4.12721 1.11134,-4.1272 0.72433,0 c 0.39838,0 1.16853,-0.98339 1.71145,-2.18531 0.54292,-1.20192 1.51144,-2.35169 2.15227,-2.55504 l 1.16514,-0.36974 0.68736,2.16568 0.68736,2.16568 2.89593,-3.17063 2.89592,-3.17062 0.87241,0.53918 c 0.47983,0.29655 1.14429,1.89855 1.47658,3.55999 l 0.60416,3.02081 0.94708,0 c 0.52089,0 2.53597,-1.85627 4.47795,-4.12504 l 3.53089,-4.12504 1.61599,0.62011 1.61599,0.62012 -0.67386,2.25492 c -0.37063,1.24021 -1.43686,3.60493 -2.36941,5.25493 l -1.69554,3 -2.69954,1.30457 -2.69955,1.30456 0,1.38642 c 0,2.11345 1.19792,2.35223 4.61039,0.91901 l 3.11038,-1.30636 1.68653,-3.5541 1.68653,-3.5541 1.83064,0 1.83064,0 1.28006,-1.54238 1.28007,-1.54238 0.92748,0.92748 0.92748,0.92748 -1.5851,3.06524 c -0.87181,1.68588 -1.5851,3.82349 -1.5851,4.75023 l 0,1.68499 2.56872,2.38061 2.56872,2.38061 2.89992,-1.71302 c 2.64707,-1.56366 4.52013,-4.0947 3.66388,-4.95095 -0.19021,-0.19021 -1.8883,-0.51202 -3.77354,-0.71514 l -3.4277,-0.36929 -0.29733,-2.44392 -0.29734,-2.44391 1.98432,-1.79579 1.98432,-1.79578 1.06302,0.65698 1.06301,0.65697 0,2.44099 0,2.44098 1.93261,0 1.93261,0 0.66673,-2.10066 0.66672,-2.10067 0.82372,0.85067 c 0.45304,0.46786 0.99868,2.20066 1.21253,3.85066 l 0.38881,3 2.23493,-4.75 2.23493,-4.75 1.58913,0 1.58913,0 -0.62238,4.54073 -0.62237,4.54072 1.6327,-0.29072 1.63271,-0.29073 0.41451,1.1823 0.41451,1.18229 -2.12469,1.1371 -2.12468,1.1371 -1.45484,-1.20741 -1.45484,-1.2074 -1.79489,1.62435 -1.7949,1.62436 -1.1826,-1.1826 -1.1826,-1.1826 -1.25374,1.54995 c -0.68956,0.85247 -2.36638,2.29079 -3.72626,3.19626 l -2.4725,1.6463 -3.2775,0 -3.27749,0 0,-1.39159 z m 61.76793,-1.60841 -1.24902,-2 -1.25946,0 -1.25945,0 0,-2.69113 0,-2.69113 -1.3483,1.84391 -1.34829,1.8439 -1.0384,-0.64176 -1.0384,-0.64177 -1.23575,1.48899 c -1.5531,1.87137 -2.6223,1.89182 -3.32386,0.0636 l -0.54698,-1.42541 1.00225,-3.62985 1.00225,-3.62985 1.99348,-0.73744 1.99348,-0.73743 3.44426,0.40209 3.44426,0.4021 0.0588,4.1406 0.0588,4.14059 1.1912,-1.84419 c 0.65515,-1.0143 2.37173,-3.2218 3.81461,-4.90556 l 2.62343,-3.06137 1.656963,0.63583 1.65696,0.63584 -2.03365,3.98629 -2.033653,3.98629 -1.99674,1.06862 c -1.09819,0.58773 -1.99672,1.50277 -1.99672,2.03342 l 0,0.96482 2.46862,0 2.46861,0 -0.5756,1.5 -0.57561,1.5 -2.38453,0 -2.38454,0 -1.24902,-2 z m 61.525503,-0.67771 -0.64379,-1.6777 2.17518,-1.44427 2.17518,-1.44426 0,-1.24035 0,-1.24035 -5.25,-0.55383 -5.25,-0.55384 -5,0.686 c -2.75,0.3773 -5.675,0.63311 -6.5,0.56847 -0.825,-0.0646 -2.5125,-0.18607 -3.75,-0.26985 l -2.25,-0.15231 0,-1.39301 0,-1.39301 1.62675,-0.62424 1.62675,-0.62425 1.36566,1.13341 1.36567,1.1334 8.01322,-1.17169 8.01321,-1.17168 0.99437,0.61455 0.99437,0.61455 1.0027,-0.6197 1.00271,-0.61971 -0.99439,-1.85803 -0.99439,-1.85803 -3.25831,-0.69675 c -1.79208,-0.38322 -3.82082,-1.14989 -4.50832,-1.70373 l -1.25,-1.00697 0,-1.87755 0,-1.87756 3.31291,0 3.31291,0 2.78519,2.90711 2.78519,2.90712 3.1519,0.62441 c 1.73354,0.34342 3.94939,1.22964 4.92411,1.96937 l 1.77221,1.34496 -0.91043,2.37351 -0.91043,2.37352 -4.11178,3.79031 c -2.26148,2.08466 -4.11178,4.22216 -4.11178,4.75 0,0.52783 -0.46412,0.95969 -1.03138,0.95969 l -1.03139,0 -0.6438,-1.67771 z m 8.53048,-10.65818 0.3239,-1.67016 -1.61703,-0.62051 c -2.13961,-0.82105 -2.57259,-0.24931 -1.86379,2.46112 l 0.58766,2.24722 1.12267,-0.37375 1.12268,-0.37376 0.32391,-1.67016 z m -94.252483,8.76446 c -1.90263,-1.90263 -1.89683,-1.7323 -0.19459,-5.71069 l 1.37684,-3.21788 3.17049,-2.98244 3.17049,-2.98243 0.93736,1.48243 c 1.41123,2.23188 1.25435,2.6294 -2.53202,6.41577 -1.925,1.925 -3.5,3.965 -3.5,4.53334 l 0,1.03333 1.5,0 1.5,0 0,-1 0,-1 1.5,0 1.5,0 0,0.9433 c 0,1.17203 -4.01841,4.0567 -5.65108,4.0567 -0.66333,0 -1.91321,-0.70714 -2.77749,-1.57143 z m 40.946223,0.32143 c -0.23077,-0.6875 -0.56702,-2.375 -0.74723,-3.75 l -0.32764,-2.5 -1.74707,3.25 -1.74707,3.25 -1.47432,0 -1.47432,0 0,-1.35078 c 0,-0.74292 0.49393,-2.76766 1.09762,-4.4994 l 1.09762,-3.14863 3.43814,-1.6315 c 1.89097,-0.89733 3.58406,-1.4601 3.76241,-1.2506 0.17836,0.2095 0.60537,3.19341 0.94892,6.63091 l 0.62463,6.25 -1.51606,0 -1.51605,0 -0.41958,-1.25 z m -49.234833,-1.86718 -1.03735,-1.03735 0.80245,-3.55795 0.80245,-3.55796 3.09408,-2.826 3.09408,-2.82601 1.48073,0.56822 c 2.01607,0.77363 1.88065,1.25182 -0.99515,3.51393 l -2.4759,1.94754 -1.05128,3.90416 c -0.5782,2.14728 -1.41701,4.13019 -1.86402,4.40646 l -0.81275,0.5023 -1.03734,-1.03734 z m 58.356663,0.42333 c -0.35171,-0.35172 -0.63948,-2.32768 -0.63948,-4.39103 0,-2.06335 -0.27314,-4.46335 -0.60699,-5.33333 l -0.60699,-1.58179 -2.39301,0 -2.39301,0 0,-1.5 0,-1.5 2.42041,0 2.4204,0 0.67076,-6.75 c 0.36892,-3.7125 0.98791,-8.06939 1.37554,-9.68198 l 0.70477,-2.93198 1.34377,-0.44792 1.34377,-0.44793 -0.70204,5.37991 c -0.38613,2.95894 -0.95072,7.11414 -1.25466,9.23377 l -0.5526,3.85387 2.11494,-0.67126 2.11494,-0.67126 0,1.45076 0,1.45076 -2.14383,0.56062 -2.14384,0.56063 0.66434,6.48431 0.66434,6.48432 -0.88103,0.5445 -0.88102,0.54451 -0.63948,-0.63948 z m -170.639483,-13.22436 0,-10.91822 -0.60699,-1.58178 -0.60699,-1.58179 1.58794,0 1.58794,0 0.50421,2.25 c 0.27731,1.2375 0.62338,6.86348 0.76905,12.50218 l 0.26484,10.25218 -1.75,-0.002 -1.75,-0.002 0,-10.91821 z m 269.713233,8.61328 -0.57459,-1.49736 1.52275,-8.84886 1.52275,-8.84885 1.01293,-1.22899 1.01294,-1.22898 1.67082,0.89419 1.67082,0.8942 1.75293,-0.98099 1.75293,-0.981 2.22125,0.31579 2.22124,0.31578 -0.27923,3.5 -0.27923,3.5 1.48119,-1.87543 1.48118,-1.87542 1.54805,0.59404 1.54804,0.59404 0,4.03139 0,4.03138 -1.34501,0 -1.34501,0 -1.65499,1.82874 -1.65499,1.82874 0,2.67126 0,2.67126 -4.375,0 c -2.40625,0 -5.71649,0.2683 -7.35609,0.59622 l -2.98109,0.59622 -0.57459,-1.49737 z m 11.11646,-3.44507 0.90005,-1.75 -0.46933,-1.31338 -0.46933,-1.31337 1.85446,-1.43736 1.85446,-1.43736 -1.75,-1.04896 -1.75,-1.04895 0,-2.51986 0,-2.51986 -2.25,0.31955 -2.25,0.31955 -0.34118,2.5 c -0.18764,1.375 -0.9147,3.175 -1.61569,4 -0.70098,0.825 -1.57372,2.75819 -1.93942,4.29599 l -0.6649,2.79599 0.58961,0.95401 0.58961,0.95401 3.4058,0 3.4058,0 0.90006,-1.75 z m 95.598777,-10.67896 -0.64529,-2.57104 -1.64159,-0.0808 c -1.66383,-0.082 -7.69866,-0.0674 -34.548447,0.0834 l -14.90686,0.0837 -1.09314,-1.0951 -1.09314,-1.09509 0,-19.19804 c 0,-10.55893 0.29771,-23.47305 0.66157,-28.69805 l 0.66158,-9.5 1.61814,-8 1.61814,-8 0.85644,-16.80282 c 0.47104,-9.24156 1.02017,-16.95448 1.22029,-17.13983 0.20011,-0.18534 2.34802,-0.60837 4.77314,-0.94005 2.42511,-0.33168 5.92587,-1.15145 7.77945,-1.82171 l 3.37016,-1.21867 3.3577,1.80824 3.35769,1.80824 15.479927,-0.0541 15.47993,-0.0541 1.88292,1.38631 1.88292,1.3863 -0.21881,12.32113 c -0.35594,20.04334 -1.82839,37.51277 -4.32571,51.32113 l -1.08514,6 1.21303,3.71405 1.21302,3.71406 -1.53043,5.28594 -1.53044,5.28595 -0.17336,6.54445 -0.17337,6.54445 2.12819,2.70555 c 1.1705,1.48805 1.87052,2.7618 1.5556,2.83055 -0.31492,0.0687 -1.11479,0.18125 -1.7775,0.25 l -1.20491,0.125 -0.57267,2.42586 -0.57267,2.42586 -1.18553,0.39518 -1.18554,0.39518 -0.64529,-2.57104 z m -2.06184,-5.46878 1.86663,-0.10226 -0.52103,-1.99245 -0.52104,-1.99244 1.32772,-4.41169 1.32772,-4.41169 1.16491,-15.84586 c 0.6407,-8.71523 1.40541,-20.12087 1.69936,-25.34587 l 0.53447,-9.5 0.91059,-0.57958 0.9106,-0.57959 0.46731,-18.64697 0.46731,-18.64698 -2.25059,-1.38209 -2.25059,-1.38209 -14.79179,-0.11392 -14.791797,-0.11392 -2.18071,-1.52743 c -2.70837,-1.89702 -4.09378,-1.91166 -8.08457,-0.0855 -1.73312,0.79308 -4.27613,1.58058 -5.65113,1.75 l -2.5,0.30803 -0.66239,5 c -0.36432,2.75 -0.70182,8.91535 -0.75,13.70078 l -0.0876,8.70078 -0.89764,4.79922 c -3.58774,19.18177 -3.88962,22.82206 -4.17114,50.29926 l -0.17931,17.5 1.06935,2.67124 1.06934,2.67124 22.8047,-0.31898 c 12.542577,-0.17544 23.644667,-0.365 24.671317,-0.42124 z m -25.663997,-66.11643 -1.46739,-2.09499 0.85852,-3.69542 c 0.47219,-2.03248 0.86926,-5.57863 0.88238,-7.88032 l 0.0239,-4.1849 1.0747,-2.8151 1.07471,-2.8151 1.360697,1.85279 1.3607,1.85279 0.63504,-3.38507 c 0.34927,-1.86178 0.49084,-5.16428 0.3146,-7.33889 l -0.32049,-3.95383 9.5,-0.22254 c 5.225,-0.12239 10.58182,-0.49212 11.90404,-0.82161 l 2.40404,-0.59907 -0.56979,14.82575 -0.56979,14.82575 -1.17723,2.58374 -1.17723,2.58374 -2.65702,0.0471 c -3.52123,0.0625 -17.85344,2.01817 -20.163737,2.75143 l -1.82327,0.57869 -1.46738,-2.09499 z m 11.297367,-3.37884 0,-1.39301 -1.37178,-0.5264 -1.37178,-0.52641 -2.37822,-4.83058 -2.37822,-4.83059 -0.3068,5.3808 c -0.168727,2.95944 -0.0704,5.99694 0.21862,6.75 l 0.52541,1.3692 3.53139,0 3.53138,0 0,-1.39301 z m 7,-0.60699 0,-1 -1.5,0 -1.5,0 0,1 0,1 1.5,0 1.5,0 0,-1 z m 3.75,-3.92767 1.25,-0.0723 0,-0.95953 c 0,-0.52774 -1.16197,-2.03697 -2.58215,-3.35383 l -2.58214,-2.39431 1.43494,-4.89616 1.43494,-4.89617 -0.43613,-1.25 -0.43613,-1.25 -5.29647,0 -5.29648,0 -0.46936,6.25 -0.46937,6.25 2.34918,2.82673 c 1.29204,1.55469 2.3489,3.12969 2.34857,3.5 l -6e-4,0.67327 3.7506,-0.17767 c 2.06283,-0.0977 4.3131,-0.21021 5.0006,-0.25 z m 4.25,-14.07233 0,-9 -0.88889,0 -0.88889,0 0.10094,1.25 c 0.0555,0.6875 -0.26808,4.25183 -0.71911,7.92073 l -0.82007,6.67073 0.66703,1.07927 c 0.36686,0.5936 1.09047,1.07927 1.60801,1.07927 l 0.94098,0 0,-9 z m -6.24567,-9.25 -0.41234,-1.25 -5.67099,-0.2999 -5.671,-0.29991 0,1.54991 0,1.5499 6.08333,0 6.08334,0 -0.41234,-1.25 z m -18.319157,4.84773 -0.62346,-2.48406 0.66325,-1.07315 0.66324,-1.07314 0.930897,0.57533 0.9309,0.57532 0,2.38197 0,2.38197 -0.970677,0.59991 -0.97069,0.59992 -0.62346,-2.48407 z m -77.91711,75.45918 -0.61671,-1.94309 1.54932,-8.16738 1.54933,-8.16738 0,-11.30774 0,-11.30775 0.60699,-1.58178 0.60699,-1.58179 1.28602,0 1.28602,0 0.62784,1.63612 0.62784,1.63612 1.80789,-1.63612 1.80789,-1.63612 1.55468,0 1.55469,0 0.55552,2.75 0.55552,2.75 -0.91397,12.5 c -0.50269,6.875 -1.43245,15.72498 -2.06614,19.66663 l -1.15218,7.16663 -2.1228,0.56972 c -1.16754,0.31334 -3.55498,0.57586 -5.30541,0.58337 l -3.18261,0.0137 -0.61672,-1.94309 z m 9.45639,-6.36597 1.18658,-3.96045 0.57867,-15.11524 0.57867,-15.11525 -1.40918,1.14239 c -0.77506,0.62832 -2.24447,1.30332 -3.26537,1.5 l -1.85618,0.35761 -0.2647,9.5 c -0.14559,5.225 -0.60201,13.16777 -1.01428,17.65059 l -0.74957,8.1506 0.66682,1.07892 0.66681,1.07893 1.84758,-1.15383 1.84757,-1.15383 1.18658,-3.96044 z m 5.55397,3.35505 -0.58961,-0.95401 0.68911,-2.74562 c 0.37901,-1.51009 0.73027,-4.56829 0.78059,-6.79599 l 0.0915,-4.05037 5,0 5,0 -0.23977,2.5 c -0.13187,1.375 -0.26288,4.30871 -0.29113,6.51936 l -0.0514,4.01935 -3.94312,1.23065 c -4.74489,1.48087 -5.67721,1.52088 -6.4462,0.27663 z m 6.94303,-6.74551 0.66805,-3.56098 -1.05308,-1.05308 -1.05309,-1.05309 -0.63393,0.63394 c -0.34867,0.34866 -0.86567,2.68988 -1.1489,5.20269 l -0.51497,4.56876 1.53394,-0.58863 1.53394,-0.58863 0.66804,-3.56098 z m -5.46276,-18.05048 c 0.005,-0.9625 0.29246,-4.1125 0.63929,-7 l 0.6306,-5.25 1.75372,0 1.75372,0 0.57561,-1.5 0.5756,-1.5 2.03139,0 2.03138,0 0,2.35331 c 0,1.29432 -0.28911,5.11932 -0.64246,8.5 l -0.64245,6.14669 -4.35755,0 -4.35754,0 0.009,-1.75 z m 6.38432,-2.83179 c 0.33385,-0.86998 0.60699,-2.89498 0.60699,-4.5 l 0,-2.91821 -1.36916,0 -1.36916,0 -0.59332,3.6562 -0.59332,3.65621 0.5215,0.84379 c 0.8238,1.33294 2.13452,0.98704 2.79647,-0.73799 z m -4.68115,-20.55959 -1.71186,-0.958 0,-2.45031 0,-2.45031 -1.37756,0 c -0.75765,0 -1.89739,0.62637 -2.53275,1.39194 -0.63537,0.76556 -2.05518,1.62728 -3.15514,1.91492 l -1.99993,0.523 -1.55569,-2.37429 -1.55569,-2.37429 0.69788,-3.29064 0.69789,-3.29064 2.38501,-3.17609 2.38502,-3.17609 3.00548,1.49933 3.00548,1.49933 0,1.92676 c 0,2.51465 0.5418,2.43256 3.78343,-0.57324 l 2.69613,-2.5 2.65323,0 2.65323,0 0.54698,1.4254 0.54698,1.42541 -1.01386,3.67189 c -1.25804,4.55625 -4.03078,9.20391 -6.53909,10.96079 l -1.90332,1.33314 -1.71185,-0.95801 z m 6.18299,-7.99814 2.9353,-5.13953 -0.52206,-1.36047 -0.52207,-1.36048 -1.14301,0.008 -1.14301,0.008 -2.25,3.94042 -2.25,3.94042 0,2.55188 0,2.55188 0.97977,0 0.97977,0 2.93531,-5.13952 z m -11.68586,-1.03872 2.07695,-3.63423 -0.62813,-1.63689 -0.62814,-1.63689 -1.87768,1.00491 -1.87769,1.00491 -1.25103,3.02025 -1.25103,3.02026 0.61441,1.60112 0.6144,1.60112 1.0655,-0.35517 c 0.58602,-0.19534 2.00012,-1.99057 3.14244,-3.98939 z"
         style="fill:#000000" />
    </g>
  </g>
</svg>
